# xmcd
#
# Track frame offsets:
#       150
#       18217
#       35395
#       53942
#       75357
#       91167
#       111750
#       126485
#       137637
#       152537
#       175062
#       190497
#       208210
#       226885
#       247797
#       266795
#       295715
#
# Disc length: 4681 seconds
#
# Revision: 2
# Processed by: cddbd v1.5.1PL0 Copyright (c) Steve Scherf et al.
# Submitted via: WhereIsIt 3.26
#
DISCID=df124711
DTITLE=Zachary Richard - Travailler c'est trop dur - anthologie 1976-1999 dis
DTITLE=k2
DYEAR=1900
DGENRE=
TTITLE0=Bon Temps Rouler
TTITLE1=Un Autre Soir Ennuyant
TTITLE2=Mes Souliers Rouges
TTITLE3=Les Ailes des Hirondelles
TTITLE4=Traveiller C'Est Trop Dur
TTITLE5=à la radio
TTITLE6=Vent d'été
TTITLE7=Con Todo de Meus Coraçao
TTITLE8=Dear Darling
TTITLE9=Save Me, Sarah
TTITLE10=Zack's Bon Ton
TTITLE11=Everytime
TTITLE12=No French, No More
TTITLE13=Snake Bite Love
TTITLE14=Sunset on Louisanne
TTITLE15=L' Arbre Est Dans Ses Feuilles
TTITLE16=La Ballade de Jean Batailleur
EXTD=
EXTT0=
EXTT1=
EXTT2=
EXTT3=
EXTT4=
EXTT5=
EXTT6=
EXTT7=
EXTT8=
EXTT9=
EXTT10=
EXTT11=
EXTT12=
EXTT13=
EXTT14=
EXTT15=
EXTT16=
PLAYORDER=
